<?xml version="1.0" standalone="no"?>
<!DOCTYPE svg PUBLIC "-//W3C//DTD SVG 20010904//EN"
 "http://www.w3.org/TR/2001/REC-SVG-20010904/DTD/svg10.dtd">
<svg version="1.0" xmlns="http://www.w3.org/2000/svg"
 width="122.000000pt" height="122.000000pt" viewBox="0 0 122.000000 122.000000"
 preserveAspectRatio="xMidYMid meet">
<metadata>
Created by potrace 1.14, written by Peter Selinger 2001-2017
</metadata>
<g transform="translate(0.000000,122.000000) scale(0.100000,-0.100000)"
fill="#000000" stroke="none">
<path d="M197 1045 c-116 -44 -188 -164 -174 -288 13 -107 83 -206 237 -337
36 -30 67 -58 70 -61 17 -19 172 -139 180 -139 5 0 28 17 51 39 l42 38 29 -57
c47 -95 144 -151 245 -144 94 6 162 49 211 133 36 61 38 173 5 237 -26 48 -92
111 -128 120 -14 3 -25 9 -25 13 0 3 11 33 25 66 77 187 -34 383 -221 391 -79
4 -145 -26 -200 -90 l-41 -48 -16 26 c-24 37 -67 74 -106 92 -47 23 -137 27
-184 9z m193 -93 c19 -15 49 -55 66 -88 36 -69 60 -77 85 -26 35 69 70 112
109 132 178 91 347 -117 244 -300 -29 -50 -34 -54 -91 -70 -33 -9 -74 -27 -93
-40 -39 -28 -87 -101 -96 -146 -8 -42 -107 -129 -123 -107 -3 5 -49 44 -101
88 -130 108 -217 192 -250 240 -61 89 -67 192 -16 273 29 46 67 70 129 81 53
9 91 -1 137 -37z m567 -435 c62 -33 107 -120 96 -189 -6 -40 -35 -97 -60 -120
-47 -43 -140 -60 -200 -37 -64 24 -123 110 -122 179 2 147 154 235 286 167z"/>
<path d="M388 738 c-28 -53 -38 -63 -63 -66 -38 -4 -49 -15 -40 -41 5 -18 14
-21 61 -21 52 0 56 2 68 31 16 38 18 34 41 -61 10 -41 23 -81 30 -89 22 -23
49 -3 79 59 l28 59 67 3 c59 3 66 5 69 25 4 28 -20 39 -78 36 -25 0 -57 -2
-72 -2 -20 -1 -32 -9 -43 -32 -18 -35 -22 -34 -28 1 -34 179 -63 203 -119 98z"/>
<path d="M890 361 l-59 -59 -26 24 c-30 27 -47 30 -64 10 -9 -11 -9 -20 -2
-34 14 -26 79 -82 95 -82 17 0 156 144 156 162 0 15 -19 38 -32 38 -5 0 -35
-27 -68 -59z"/>
</g>
</svg>
